<?xml version="1.0" encoding="UTF-8"?>
<svg id="Ebene_2" data-name="Ebene 2" xmlns="http://www.w3.org/2000/svg" viewBox="0 0 605.73 177.22">
  <defs>
    <style>
      .cls-1 {
        fill: #fff;
        stroke-width: 0px;
      }
    </style>
  </defs>
  <g id="Ebene_1-2" data-name="Ebene 1">
    <g>
      <path class="cls-1" d="m131.33,120.96l22.13-68.1h18.32l-2.21,6.8c1.87-2.36,4.4-4.34,7.57-5.97,3.17-1.62,6.11-2.43,8.82-2.43,5.06,0,8.74,1.82,11.02,5.46l-7.9,16.72c-1.41-1.69-2.89-2.86-4.45-3.53-1.56-.67-3.45-1-5.67-1-2.62,0-5.04.59-7.27,1.77-2.23,1.18-4.2,2.9-5.91,5.16-1.71,2.26-3.09,5-4.13,8.19l-11.99,36.92h-18.32Z"/>
      <path class="cls-1" d="m206.77,122.56c-7.46,0-12.72-2-15.78-6-3.05-4-3.48-9.4-1.27-16.19,1.44-4.44,3.85-8.33,7.22-11.66,3.37-3.33,7.4-5.92,12.08-7.76,4.69-1.84,9.74-2.77,15.16-2.77,2.89,0,5.62.25,8.19.73,2.58.49,4.67,1.18,6.29,2.06l1.32-4.06c1.1-3.38.9-5.94-.6-7.7-1.5-1.75-4.2-2.63-8.11-2.63-3.33,0-6.96.6-10.88,1.8-3.92,1.2-8.15,3.02-12.67,5.46l-.99-14.19c4.92-2.71,10.09-4.79,15.52-6.23,5.42-1.44,10.69-2.17,15.8-2.17,9.46,0,15.83,2.2,19.11,6.6,3.28,4.4,3.5,10.97.66,19.72l-14.09,43.38h-18.06l1.69-5.2c-2.9,2.22-6.1,3.91-9.61,5.06-3.51,1.15-7.17,1.73-10.99,1.73Zm9.51-15.33c2.62,0,5.27-.47,7.95-1.4,2.68-.93,5.24-2.29,7.68-4.07l2.21-6.79c-1.52-.8-3.28-1.4-5.28-1.8-2-.4-4.11-.6-6.33-.6-3.87,0-7.12.68-9.76,2.03-2.64,1.36-4.35,3.25-5.15,5.7-.71,2.18-.31,3.87,1.21,5.1,1.51,1.22,4,1.83,7.47,1.83Z"/>
      <path class="cls-1" d="m285.06,122.56c-5.46,0-10.33-1.17-14.59-3.5-4.26-2.33-7.18-5.46-8.75-9.36l14.95-9.93c1.51,2.31,3.53,4.18,6.04,5.6,2.51,1.42,5.13,2.13,7.84,2.13,3.11,0,5.67-.5,7.68-1.5,2.01-1,3.32-2.43,3.93-4.3.37-1.16.31-2.19-.19-3.1s-1.66-1.88-3.46-2.9c-1.8-1.02-4.46-2.26-7.98-3.73-6.82-2.8-11.28-5.83-13.37-9.09-2.09-3.27-2.32-7.41-.69-12.43,1.86-5.73,5.68-10.36,11.44-13.89,5.77-3.53,12.38-5.3,19.85-5.3,5.02,0,9.37.96,13.06,2.87,3.69,1.91,6.5,4.69,8.42,8.33l-14.98,9.79c-2.71-3.95-6.65-5.93-11.8-5.93-2.44,0-4.57.46-6.38,1.37-1.81.91-2.94,2.08-3.4,3.5-.46,1.42.03,2.72,1.47,3.9,1.44,1.18,4.44,2.54,9,4.1,4.81,1.6,8.55,3.44,11.23,5.53,2.68,2.09,4.35,4.52,5.03,7.3.67,2.78.42,5.99-.76,9.63-2.12,6.53-6.17,11.65-12.15,15.36-5.98,3.71-13.12,5.57-21.43,5.57Z"/>
      <path class="cls-1" d="m355.43,122.56c-9.68,0-16.3-3.17-19.84-9.5-3.54-6.33-3.51-15.02.08-26.09,2.37-7.28,5.7-13.6,9.99-18.96,4.29-5.35,9.26-9.48,14.89-12.39,5.63-2.91,11.65-4.36,18.04-4.36s11.38,1.46,15.07,4.36c3.7,2.91,5.94,7.03,6.74,12.36.8,5.33,0,11.66-2.37,18.99-2.38,7.33-5.68,13.66-9.9,18.99-4.22,5.33-9.13,9.43-14.72,12.29-5.59,2.86-11.59,4.3-17.99,4.3Zm5.71-17.59c4.09,0,7.77-1.58,11.03-4.73,3.27-3.15,5.83-7.57,7.67-13.26,1.86-5.73,2.17-10.18.91-13.36-1.26-3.17-3.88-4.76-7.88-4.76s-7.74,1.61-11.1,4.83c-3.36,3.22-5.95,7.65-7.78,13.29-1.82,5.6-2.09,9.99-.82,13.19,1.27,3.2,3.93,4.8,7.97,4.8Z"/>
      <path class="cls-1" d="m483.23,122.56c-6.62,0-11.86-1.44-15.72-4.33-3.86-2.89-6.21-7-7.06-12.33-.84-5.33-.07-11.68,2.33-19.06,2.37-7.28,5.73-13.59,10.08-18.92,4.35-5.33,9.4-9.44,15.13-12.33,5.73-2.89,11.87-4.33,18.4-4.33,5.64,0,10.37,1.17,14.19,3.5,3.82,2.33,6.29,5.89,7.43,10.66,1.14,4.78.52,10.81-1.84,18.09-.4,1.24-.92,2.74-1.53,4.5-.62,1.75-1.32,3.5-2.1,5.23h-43.91c-.82,2.8-.97,5.22-.46,7.26.51,2.04,1.63,3.63,3.35,4.76,1.72,1.13,4,1.7,6.85,1.7,3.38,0,6.42-.54,9.13-1.63,2.71-1.09,5.55-2.88,8.54-5.37l7.04,10.73c-4.23,3.6-8.84,6.48-13.83,8.63-4.99,2.15-10.32,3.23-16.01,3.23Zm.14-43.31h26.59c.58-2.62.65-4.86.19-6.73-.46-1.87-1.46-3.27-2.99-4.23-1.53-.95-3.61-1.43-6.23-1.43-3.6,0-6.98,1.07-10.13,3.2-3.16,2.13-5.63,5.2-7.42,9.2Z"/>
      <path class="cls-1" d="m560.05,122.56c-6.44,0-11.54-1.44-15.28-4.33-3.75-2.89-6.03-7-6.86-12.33-.82-5.33-.05-11.64,2.32-18.92,2.37-7.28,5.71-13.6,10.02-18.96,4.31-5.35,9.3-9.48,14.95-12.39,5.65-2.91,11.68-4.36,18.08-4.36,7.42,0,13.01,1.73,16.77,5.2,3.76,3.47,5.65,8.57,5.68,15.33l-19.36,5.86c-.14-2.84-.95-5.03-2.43-6.56-1.48-1.53-3.51-2.3-6.08-2.3-3.91,0-7.62,1.67-11.12,5-3.5,3.33-6.14,7.73-7.92,13.19-1.76,5.42-2,9.78-.72,13.09,1.28,3.31,3.83,4.96,7.65,4.96,2.84,0,5.54-.83,8.08-2.5,2.54-1.67,4.86-4.1,6.97-7.3l15.75,5.06c-4.54,7.42-9.88,12.98-16.02,16.69-6.14,3.71-12.96,5.57-20.46,5.57Z"/>
      <path class="cls-1" d="m441.06,68.99h14.99l5.22-16.08h-42.78l-5.22,16.08h9.59l-11.47,35.31c-1.98,6.09-2.07,10.65-.28,13.69,1.79,3.04,5.52,4.57,11.21,4.57,2.98,0,5.79-.27,8.46-.8,2.66-.53,5.19-1.29,7.6-2.26l7.13-15.59c-4.62,1.91-8.6,2.86-11.93,2.86-1.64,0-2.71-.43-3.21-1.3-.5-.87-.46-2.17.1-3.9l10.59-32.58Z"/>
      <path class="cls-1" d="m123.28,50.38h-11.57l4.48-13.79c3.16-9.72,2.07-19.28-2.99-26.25-4.85-6.67-12.68-10.35-22.07-10.35s-18.66,3.47-27,9.76c-8.29,6.25-14.45,14.63-17.36,23.58l-5.01,15.42-.53,1.63h-14.64c-.84,0-1.59.54-1.85,1.35L3.03,118.56c-.41,1.26.53,2.55,1.85,2.55h13.35l-9.38,28.86L0,177.22l17.97-22.33,26.45-32.87.61-.75.05-.17h56.48c.84,0,1.59-.54,1.85-1.35l21.71-66.83c.41-1.26-.53-2.55-1.85-2.55Zm-17.1,0l-12.96,39.88h-43.65s0-.01,0-.01l-9.25,28.48-26.45,32.87,20.1-61.86,4.96-15.26h43.65l7.05-21.69,5.79-17.82c2.5-7.68-1.72-13.93-9.4-13.93s-15.96,6.25-18.45,13.93l-5.01,15.42h-15.77l5.01-15.42c5.33-16.4,22.95-29.7,39.35-29.7h0c16.4,0,25.38,13.3,20.05,29.7l-5.01,15.42Zm-38.09,0l4.48-13.79c1.78-5.48,8.06-10.29,13.44-10.29,1.31,0,3.08.29,4.08,1.67.9,1.24,1.01,3.2.31,5.37l-5.54,17.05h-16.78Z"/>
    </g>
  </g>
</svg>